<svg xmlns="http://www.w3.org/2000/svg" width="24" height="24" fill="none" stroke="currentColor" stroke-linecap="round" stroke-linejoin="round" stroke-width="2" class="icon icon-tabler icons-tabler-outline icon-tabler-dog" viewBox="0 0 24 24"><path stroke="none" d="M0 0h24v24H0z"/><path d="M11 5h2M19 12c-.7 5.3-2.3 8-5 8h-4c-2.7 0-4.3-2.7-5-8"/><path d="M11 16c0 .7.3 1 1 1s1-.3 1-1h-2zM12 18v2M10 11v0M14 11v0M5 4l6 1-6.2 6.7a1 1 0 0 1-1.4 0 1 1 0 0 1-.4-.9L5 4zM19 4l-6 1 6.2 6.7c.4.4 1 .4 1.4 0a1 1 0 0 0 .4-.9L19 4z"/></svg>